<svg viewBox="0 0 210 79.09809264305177" xmlns="http://www.w3.org/2000/svg" data-name="Calque 1" id="Calque_1" style="max-height: 500px" width="210" height="79.09809264305177"><defs><style>.cls-1{fill:#fff;}.cls-2{fill:#e41c3e;}</style></defs><path d="M8.83,33.35a8,8,0,0,1,3.87,1A28.09,28.09,0,0,1,52.6,12.15a8,8,0,0,1,4-5.88c-.77-.39-1.55-.75-2.34-1.09a35.18,35.18,0,0,0-46,18.69A34.71,34.71,0,0,0,5.65,34,8,8,0,0,1,8.83,33.35Z" class="cls-1"/><path d="M73,23.87a34.89,34.89,0,0,0-4.82-8.13,8,8,0,0,1-5,5.09A28.05,28.05,0,0,1,56,61.06a8,8,0,0,1,3.56,6.1A35.18,35.18,0,0,0,73,23.87Z" class="cls-1"/><path d="M43.51,67.73a7.81,7.81,0,0,1,.33-2.28,28.78,28.78,0,0,1-3.24.18A28.12,28.12,0,0,1,14.25,47.26a8,8,0,0,1-5.42,2.11,8.71,8.71,0,0,1-1.36-.11c.24.66.49,1.31.76,2A35.1,35.1,0,0,0,40.6,72.68,35.76,35.76,0,0,0,45,72.41,8,8,0,0,1,43.51,67.73Z" class="cls-1"/><circle r="6.2" cy="13.26" cx="60.53" class="cls-2"/><circle r="6.2" cy="67.73" cx="51.52" class="cls-2"/><circle r="6.2" cy="41.36" cx="8.83" class="cls-2"/><circle r="17.73" cy="37.55" cx="40.69" class="cls-2"/><path d="M80,51.79c-.23-3.66-.48-6.58-.77-8.78a26.91,26.91,0,0,0,5.14,1.79,18.13,18.13,0,0,0,4,.5,8.28,8.28,0,0,0,3.57-.65,2.09,2.09,0,0,0,1.32-1.95,2.53,2.53,0,0,0-.13-.83,3.12,3.12,0,0,0-.49-.9,6.7,6.7,0,0,0-1-1.1l-4.84-4.22c-1.14-1-1.93-1.65-2.38-2.08a15,15,0,0,1-2.12-2.44,8.43,8.43,0,0,1-1.11-2.31,8.74,8.74,0,0,1-.35-2.48,8.86,8.86,0,0,1,.55-3.08A9.3,9.3,0,0,1,83,20.45a9.59,9.59,0,0,1,2.94-2.27,13.34,13.34,0,0,1,3.91-1.3,26.24,26.24,0,0,1,4.29-.34,49.34,49.34,0,0,1,9.47,1c0,1.18.11,2.27.18,3.25s.23,2.72.49,5.19a24.21,24.21,0,0,0-4.32-1.33,19.22,19.22,0,0,0-3.37-.37,6.67,6.67,0,0,0-3.33.75,2.15,2.15,0,0,0-1.33,1.85,2.49,2.49,0,0,0,.21,1A4.32,4.32,0,0,0,92.88,29a13,13,0,0,0,1.49,1.44C95,31,96,31.77,97.28,32.8l1.85,1.46c.55.45,1.14,1,1.78,1.63a18,18,0,0,1,1.64,1.87,10.5,10.5,0,0,1,1.07,1.7,7.22,7.22,0,0,1,.73,3.24,9.31,9.31,0,0,1-1.1,4.42,9.43,9.43,0,0,1-3.14,3.45,13.14,13.14,0,0,1-4.47,1.89,23.6,23.6,0,0,1-5.13.54A58.84,58.84,0,0,1,80,51.79Z" class="cls-1"/><path d="M130.88,31.85c2.35,0,4.58,0,6.71,0q5.46,0,8.54,0c-.22,2.35-.45,5.67-.68,10s-.37,7.56-.42,9.75c-2,.36-3.61.62-4.9.79s-2.85.31-4.67.43-3.44.2-4.87.2a41.18,41.18,0,0,1-6.87-.57,23,23,0,0,1-6-1.83,12.6,12.6,0,0,1-4.44-3.42,15.6,15.6,0,0,1-2.74-5.12,19.69,19.69,0,0,1-1-6.12,19,19,0,0,1,2.6-9.7,18.55,18.55,0,0,1,7.48-7.09q4.88-2.61,12.59-2.61a64.19,64.19,0,0,1,12.48,1.36q0,3.75.34,8.36c-1.24-.41-2.24-.72-3-.94s-1.66-.41-2.68-.59-2-.31-2.9-.4-1.74-.13-2.46-.13a17.36,17.36,0,0,0-5.35.81,11.48,11.48,0,0,0-4.34,2.5,10.6,10.6,0,0,0-2.71,4,13.65,13.65,0,0,0-.9,4.94,10.43,10.43,0,0,0,1,4.72A6.79,6.79,0,0,0,125,44.35a11.38,11.38,0,0,0,5,1.08,21,21,0,0,0,5-.67l.3-5.58-2-.08-2.73,0,.18-3.17c0-.34,0-.83.07-1.48S130.88,33,130.88,31.85Z" class="cls-1"/><path d="M172.78,31.85q3.53,0,6.72,0c3.64,0,6.48,0,8.54,0-.22,2.35-.45,5.67-.68,10s-.37,7.56-.42,9.75c-2,.36-3.61.62-4.9.79s-2.86.31-4.67.43-3.44.2-4.87.2a41.18,41.18,0,0,1-6.87-.57,22.91,22.91,0,0,1-6-1.83,12.6,12.6,0,0,1-4.44-3.42,15.42,15.42,0,0,1-2.74-5.12,19.4,19.4,0,0,1-1-6.12,19,19,0,0,1,2.6-9.7,18.49,18.49,0,0,1,7.48-7.09q4.88-2.61,12.59-2.61A64.19,64.19,0,0,1,186.6,17.9q0,3.75.34,8.36c-1.24-.41-2.24-.72-3-.94s-1.66-.41-2.68-.59-2-.31-2.91-.4-1.73-.13-2.45-.13a17.36,17.36,0,0,0-5.35.81,11.4,11.4,0,0,0-4.34,2.5,10.74,10.74,0,0,0-2.72,4,13.65,13.65,0,0,0-.9,4.94,10.56,10.56,0,0,0,1,4.72,6.86,6.86,0,0,0,3.27,3.15,11.34,11.34,0,0,0,5,1.08,21,21,0,0,0,5-.67l.29-5.58-2-.08-2.74,0,.19-3.17c0-.34,0-.83.07-1.48S172.78,33,172.78,31.85Z" class="cls-1"/><path d="M194.13,52.33q1.49-20.67,1.49-31.81l0-3.31,6,.05,5.53-.05c-.31,3.85-.56,7.51-.75,11q-.36,7.2-.51,13.47c-.11,4.17-.16,7.74-.16,10.69l-5.27,0C199.43,52.28,197.32,52.29,194.13,52.33Z" class="cls-2"/><path d="M79.36,63.46c0-.63-.09-1.13-.14-1.5a4.59,4.59,0,0,0,.88.3,3,3,0,0,0,.68.09,1.48,1.48,0,0,0,.61-.11.36.36,0,0,0,.22-.33.39.39,0,0,0,0-.15.56.56,0,0,0-.08-.15,1,1,0,0,0-.18-.19l-.83-.72-.4-.35a2.13,2.13,0,0,1-.36-.42,1.4,1.4,0,0,1-.19-.39,1.56,1.56,0,0,1,0-.95,1.44,1.44,0,0,1,.29-.49,1.69,1.69,0,0,1,.5-.38A2.14,2.14,0,0,1,81,57.5a4.52,4.52,0,0,1,.74-.06,8,8,0,0,1,1.61.17c0,.2,0,.39,0,.55s0,.47.08.89a4.7,4.7,0,0,0-.74-.23,3.26,3.26,0,0,0-.58-.06,1.08,1.08,0,0,0-.56.13.37.37,0,0,0-.23.31.47.47,0,0,0,0,.17.73.73,0,0,0,.14.2,2,2,0,0,0,.25.25l.5.39.31.25a3.59,3.59,0,0,1,.59.6,1.65,1.65,0,0,1,.18.29,1.48,1.48,0,0,1,.1.27,1.29,1.29,0,0,1,0,.29,1.67,1.67,0,0,1-.19.75,1.69,1.69,0,0,1-.54.59,2.23,2.23,0,0,1-.76.32,4.17,4.17,0,0,1-.88.09A10.55,10.55,0,0,1,79.36,63.46Z" class="cls-2"/><path d="M86.94,59a3,3,0,0,1,1,.17,2.27,2.27,0,0,1,.85.48,1.93,1.93,0,0,1,.51.73,2.44,2.44,0,0,1,.17.9,2.7,2.7,0,0,1-.15.9,2.11,2.11,0,0,1-.5.79,2.09,2.09,0,0,1-.89.56,3.64,3.64,0,0,1-1.15.18,3.47,3.47,0,0,1-1.07-.16A2.37,2.37,0,0,1,84.9,63a2.07,2.07,0,0,1-.52-.75,2.55,2.55,0,0,1,0-1.83,2.12,2.12,0,0,1,.53-.78,2.48,2.48,0,0,1,.91-.53A3.25,3.25,0,0,1,86.94,59Zm0,1.29a.89.89,0,0,0-.5.15.83.83,0,0,0-.33.42,1.74,1.74,0,0,0-.11.61,1,1,0,0,0,.24.74.8.8,0,0,0,.61.26.86.86,0,0,0,.82-.59,1.54,1.54,0,0,0,.12-.61,1.31,1.31,0,0,0-.09-.5.82.82,0,0,0-.29-.35A.81.81,0,0,0,86.91,60.24Z" class="cls-2"/><path d="M93.91,62.15c0,.11,0,.33-.1.64l-.12.71a5.78,5.78,0,0,1-1.35.16,3.49,3.49,0,0,1-.84-.09,2,2,0,0,1-.76-.41,1.79,1.79,0,0,1-.51-.71,3,3,0,0,1-.18-1.07,3.13,3.13,0,0,1,.18-1.05,2,2,0,0,1,.55-.83,1.89,1.89,0,0,1,.79-.44,4.26,4.26,0,0,1,1-.11l.62,0a6.35,6.35,0,0,1,.79.14v.11c0,.1,0,.21,0,.32s0,.28,0,.52l0,.39a3.34,3.34,0,0,0-1.11-.22,1.44,1.44,0,0,0-.61.13.92.92,0,0,0-.39.39,1.38,1.38,0,0,0-.12.59,1.19,1.19,0,0,0,.11.56.68.68,0,0,0,.36.35,1.33,1.33,0,0,0,.54.11l.35,0a2.56,2.56,0,0,0,.36-.07A2.27,2.27,0,0,0,93.91,62.15Z" class="cls-2"/><path d="M94.69,63.55c0-.36.08-.65.1-.88s0-.53.06-.89,0-.76.05-1.2,0-.94,0-1.52h1.81c0,.56-.08,1-.11,1.46s0,.86,0,1.33c0,.83,0,1.4,0,1.7H94.69Zm.28-5c0-.35,0-.62,0-.83a2.2,2.2,0,0,0,0-.23h1.77a2.15,2.15,0,0,0,0,.23l0,.54c0,.08,0,.18,0,.29H95Z" class="cls-2"/><path d="M101.88,62.22c0,.18-.11.6-.22,1.28-.34.06-.63.11-.86.13s-.46,0-.7,0a5.69,5.69,0,0,1-1-.07,2.07,2.07,0,0,1-.76-.26,2,2,0,0,1-.54-.45,1.93,1.93,0,0,1-.32-.66,2.52,2.52,0,0,1-.11-.77,2.81,2.81,0,0,1,.22-1.1,2.13,2.13,0,0,1,.58-.84,1.87,1.87,0,0,1,.81-.43,3.35,3.35,0,0,1,1-.13,3.69,3.69,0,0,1,1,.12,1.67,1.67,0,0,1,.77.4,1.62,1.62,0,0,1,.45.66,2.21,2.21,0,0,1,.14.78,2.89,2.89,0,0,1-.06.56H99.14v.12a.78.78,0,0,0,.33.7,1.49,1.49,0,0,0,.83.22,3.37,3.37,0,0,0,.66-.07A7.21,7.21,0,0,0,101.88,62.22Zm-2.7-1.42h1.45v-.12a1,1,0,0,0-.08-.4.51.51,0,0,0-.23-.23A.77.77,0,0,0,100,60a1.09,1.09,0,0,0-.26,0,.71.71,0,0,0-.22.13.73.73,0,0,0-.17.18,1,1,0,0,0-.09.21A2.31,2.31,0,0,0,99.18,60.8Zm0-2.37.16-.36.14-.3.13-.31h1.76l-.38.43-.2.23-.26.31H99.21Z" class="cls-2"/><path d="M106.12,62.26c-.05.24-.1.48-.13.72l-.1.53a6.33,6.33,0,0,1-.68.13l-.47,0a3.23,3.23,0,0,1-.66-.06,1.06,1.06,0,0,1-.49-.23,1,1,0,0,1-.26-.39,1.45,1.45,0,0,1-.07-.47v-.15c0-.08,0-.24,0-.5l.1-1.52h-.69c0-.21,0-.47,0-.8l0-.41h.73c0-.14,0-.43.06-.88l.75-.16c.14,0,.43-.09.88-.2,0,.38,0,.8,0,1.24h1c0,.61,0,1,0,1.21h-1l0,1.1c0,.16,0,.27,0,.31a1.13,1.13,0,0,0,0,.35.34.34,0,0,0,.16.21.55.55,0,0,0,.26.06l.22,0Z" class="cls-2"/><path d="M111,62.22c0,.18-.12.6-.22,1.28-.34.06-.63.11-.86.13s-.47,0-.7,0a5.9,5.9,0,0,1-1-.07,2.08,2.08,0,0,1-.75-.26,1.83,1.83,0,0,1-.54-.45,2.15,2.15,0,0,1-.33-.66,2.87,2.87,0,0,1-.11-.77,2.82,2.82,0,0,1,.23-1.1,2.22,2.22,0,0,1,.57-.84,2,2,0,0,1,.82-.43,3.33,3.33,0,0,1,.94-.13,3.71,3.71,0,0,1,1,.12,1.72,1.72,0,0,1,.77.4,1.62,1.62,0,0,1,.45.66,2.21,2.21,0,0,1,.14.78,2.89,2.89,0,0,1-.06.56H108.3a.49.49,0,0,0,0,.12.79.79,0,0,0,.34.7,1.47,1.47,0,0,0,.83.22,3.37,3.37,0,0,0,.66-.07A7.65,7.65,0,0,0,111,62.22Zm-2.71-1.42h1.45a.57.57,0,0,0,0-.12,1,1,0,0,0-.08-.4.59.59,0,0,0-.24-.23.74.74,0,0,0-.34-.08,1,1,0,0,0-.25,0,.61.61,0,0,0-.22.13.73.73,0,0,0-.17.18,1,1,0,0,0-.1.21A2.31,2.31,0,0,0,108.33,60.8Zm0-2.37.17-.36.13-.3.14-.31h1.76l-.38.43-.2.23c-.1.12-.19.23-.27.31h-1.35Z" class="cls-2"/><path d="M117.84,60.05h2.61q-.06.6-.12,1.71c0,.73-.06,1.29-.07,1.66l-.84.14-.8.07-.83,0a7.49,7.49,0,0,1-1.17-.09,3.89,3.89,0,0,1-1-.32,2.08,2.08,0,0,1-.76-.58,2.8,2.8,0,0,1-.47-.87,3.39,3.39,0,0,1-.16-1,3.32,3.32,0,0,1,.44-1.66,3.18,3.18,0,0,1,1.28-1.21,4.61,4.61,0,0,1,2.15-.44,10.62,10.62,0,0,1,2.13.23c0,.43,0,.9.06,1.43-.21-.07-.38-.13-.51-.16a4,4,0,0,0-.46-.1,5,5,0,0,0-.5-.07,3.1,3.1,0,0,0-.42,0,3,3,0,0,0-.91.13,2.09,2.09,0,0,0-.74.43,1.71,1.71,0,0,0-.46.69,2.2,2.2,0,0,0-.16.84,1.79,1.79,0,0,0,.18.81,1.18,1.18,0,0,0,.56.54,1.93,1.93,0,0,0,.85.18,3.89,3.89,0,0,0,.85-.11l0-1h-.8l0-.54s0-.14,0-.25S117.84,60.24,117.84,60.05Z" class="cls-2"/><path d="M125.63,62.22c0,.18-.11.6-.22,1.28-.34.06-.62.11-.85.13s-.47,0-.71,0a5.69,5.69,0,0,1-1-.07,2.13,2.13,0,0,1-.76-.26,1.79,1.79,0,0,1-.53-.45,2,2,0,0,1-.33-.66,2.87,2.87,0,0,1-.11-.77,2.81,2.81,0,0,1,.22-1.1,2.13,2.13,0,0,1,.58-.84,2,2,0,0,1,.82-.43,3.28,3.28,0,0,1,.94-.13,3.83,3.83,0,0,1,1,.12,1.72,1.72,0,0,1,.77.4,1.62,1.62,0,0,1,.45.66,2.2,2.2,0,0,1,.13.78,2.89,2.89,0,0,1-.06.56h-3.08v.12a.77.77,0,0,0,.34.7,1.44,1.44,0,0,0,.82.22,3.39,3.39,0,0,0,.67-.07A7.56,7.56,0,0,0,125.63,62.22Zm-2.7-1.42h1.45v-.12a.82.82,0,0,0-.08-.4.51.51,0,0,0-.23-.23.74.74,0,0,0-.34-.08,1.17,1.17,0,0,0-.26,0,.71.71,0,0,0-.22.13.69.69,0,0,0-.16.18.67.67,0,0,0-.1.21A2.31,2.31,0,0,0,122.93,60.8Zm0-2.37.16-.36.14-.3.14-.31h1.76l-.39.43-.19.23c-.11.12-.19.23-.27.31H123Z" class="cls-2"/><path d="M126.56,63.55c.09-.67.15-1.4.2-2.2s.07-1.57.08-2.29h1.76l0,.6a3.24,3.24,0,0,1,.25-.26,2,2,0,0,1,.26-.18,1.66,1.66,0,0,1,.33-.15,2.23,2.23,0,0,1,.39-.09,3,3,0,0,1,.43,0,2.56,2.56,0,0,1,.62.07,1.54,1.54,0,0,1,.5.19,1.13,1.13,0,0,1,.34.31,1.1,1.1,0,0,1,.18.4,2.3,2.3,0,0,1,0,.45c0,.11,0,.35,0,.72l-.08,1.59c0,.31,0,.6,0,.87H130c0-.27.06-.66.08-1.19s.05-.9.05-1.11a1,1,0,0,0-.19-.69.66.66,0,0,0-.48-.2.86.86,0,0,0-.49.17,1.09,1.09,0,0,0-.35.49,3.87,3.87,0,0,0-.17,1c0,.49-.06,1-.07,1.49h-1.81Z" class="cls-2"/><path d="M137.07,62.22c0,.18-.11.6-.22,1.28-.34.06-.62.11-.85.13s-.47,0-.71,0a5.77,5.77,0,0,1-1-.07,2.2,2.2,0,0,1-.76-.26,1.79,1.79,0,0,1-.53-.45,2.15,2.15,0,0,1-.33-.66,2.87,2.87,0,0,1-.11-.77,3,3,0,0,1,.22-1.1,2.24,2.24,0,0,1,.58-.84,2,2,0,0,1,.82-.43,3.28,3.28,0,0,1,.94-.13,3.77,3.77,0,0,1,1,.12,1.72,1.72,0,0,1,.77.4,1.62,1.62,0,0,1,.45.66,2.2,2.2,0,0,1,.13.78,3.87,3.87,0,0,1-.05.56h-3.08a.49.49,0,0,0,0,.12.77.77,0,0,0,.34.7,1.47,1.47,0,0,0,.83.22,3.37,3.37,0,0,0,.66-.07A7.56,7.56,0,0,0,137.07,62.22Zm-2.7-1.42h1.45s0-.09,0-.12a.82.82,0,0,0-.09-.4.51.51,0,0,0-.23-.23.74.74,0,0,0-.34-.08,1,1,0,0,0-.25,0,.65.65,0,0,0-.23.13.69.69,0,0,0-.16.18,1,1,0,0,0-.1.21A2.31,2.31,0,0,0,134.37,60.8Zm0-2.37.16-.36c.05-.09.09-.19.14-.3l.14-.31h1.76l-.38.43-.2.23c-.1.12-.19.23-.27.31H134.4Z" class="cls-2"/><path d="M138,63.55l.14-1.95,0-1.12c0-.2,0-.41,0-.62s0-.48,0-.8h1.68l0,.5a2.59,2.59,0,0,1,.29-.29,1.21,1.21,0,0,1,.25-.17,1,1,0,0,1,.29-.11,1.12,1.12,0,0,1,.32,0,1.5,1.5,0,0,1,.35,0c0,.32,0,.59,0,.79l0,.68a1.56,1.56,0,0,0-.46-.07,1.25,1.25,0,0,0-.45.08,1,1,0,0,0-.34.23,1.06,1.06,0,0,0-.23.39,2.93,2.93,0,0,0-.13.74c0,.33,0,.72,0,1.15,0,.15,0,.34,0,.57H138Z" class="cls-2"/><path d="M142.33,60.34c0-.29.09-.49.1-.6s0-.28.07-.51a10.15,10.15,0,0,1,2.18-.28,3.53,3.53,0,0,1,.95.12,1.32,1.32,0,0,1,.67.37,1,1,0,0,1,.24.74q0,.26-.06,1.11c0,.57-.08,1.33-.1,2.26h-1.74c0-.32.08-1,.13-2l-.26.12-.33.1-.37.12a.73.73,0,0,0-.23.13.48.48,0,0,0-.14.15.34.34,0,0,0,0,.18.36.36,0,0,0,.11.25.57.57,0,0,0,.38.11l.2,0,.29-.08c-.08.23-.19.56-.3,1a4.56,4.56,0,0,1-.72.06,2.44,2.44,0,0,1-.91-.15,1.09,1.09,0,0,1-.55-.49,1.33,1.33,0,0,1-.2-.67,1.14,1.14,0,0,1,.07-.41,1.51,1.51,0,0,1,.59-.71,2.49,2.49,0,0,1,.56-.25,7,7,0,0,1,.91-.23c.15,0,.29-.06.42-.09a1,1,0,0,0,.27-.09.49.49,0,0,0,.21-.19.5.5,0,0,0,0-.12.29.29,0,0,0-.14-.25.78.78,0,0,0-.41-.09A5.47,5.47,0,0,0,142.33,60.34Z" class="cls-2"/><path d="M147.36,63.55l.07-.95.17-3.28.05-1.77h1.81l-.1,1.35-.17,3.32,0,1.33h-1.8Z" class="cls-2"/><path d="M154.5,62.22c0,.18-.11.6-.22,1.28-.34.06-.63.11-.86.13s-.46,0-.7,0a5.69,5.69,0,0,1-1-.07,2.07,2.07,0,0,1-.76-.26,1.79,1.79,0,0,1-.86-1.11,2.52,2.52,0,0,1-.11-.77,2.81,2.81,0,0,1,.22-1.1,2.13,2.13,0,0,1,.58-.84,1.93,1.93,0,0,1,.81-.43,3.4,3.4,0,0,1,1-.13,3.69,3.69,0,0,1,.95.12,1.76,1.76,0,0,1,.78.4,1.62,1.62,0,0,1,.45.66,2.45,2.45,0,0,1,.13.78,2.89,2.89,0,0,1-.06.56h-3.08v.12a.77.77,0,0,0,.34.7,1.44,1.44,0,0,0,.82.22,3.23,3.23,0,0,0,.66-.07A7.21,7.21,0,0,0,154.5,62.22Zm-2.7-1.42h1.45v-.12a1,1,0,0,0-.08-.4.51.51,0,0,0-.23-.23.77.77,0,0,0-.34-.08,1.09,1.09,0,0,0-.26,0,.71.71,0,0,0-.22.13.55.55,0,0,0-.16.18.67.67,0,0,0-.1.21A2.31,2.31,0,0,0,151.8,60.8Z" class="cls-2"/><path d="M162.67,63.55H161l0-.56a3.3,3.3,0,0,1-.3.27,1.36,1.36,0,0,1-.32.2,1.69,1.69,0,0,1-.43.15,2,2,0,0,1-.48,0,2.09,2.09,0,0,1-.79-.15,1.71,1.71,0,0,1-.62-.44,1.67,1.67,0,0,1-.39-.67,2.45,2.45,0,0,1-.13-.81,3.15,3.15,0,0,1,.23-1.16,2.46,2.46,0,0,1,.61-.89,2.35,2.35,0,0,1,.85-.46,3.75,3.75,0,0,1,1-.13,7.18,7.18,0,0,1,.86.06c0-.34,0-.83.05-1.46H163c-.08.87-.16,1.93-.22,3.19S162.67,62.93,162.67,63.55Zm-1.56-3.39a1.78,1.78,0,0,0-.44-.06,1.49,1.49,0,0,0-.73.17,1.09,1.09,0,0,0-.46.51,1.65,1.65,0,0,0-.16.69,1.14,1.14,0,0,0,.09.46.67.67,0,0,0,.28.32.73.73,0,0,0,.41.12.81.81,0,0,0,.45-.13,1.07,1.07,0,0,0,.32-.4,1.94,1.94,0,0,0,.17-.63A10.42,10.42,0,0,0,161.11,60.16Z" class="cls-2"/><path d="M168,62.22c0,.18-.11.6-.22,1.28-.34.06-.62.11-.86.13s-.46,0-.7,0a5.69,5.69,0,0,1-1-.07,2.13,2.13,0,0,1-.76-.26,1.79,1.79,0,0,1-.86-1.11,2.87,2.87,0,0,1-.11-.77,2.81,2.81,0,0,1,.22-1.1,2.13,2.13,0,0,1,.58-.84,2,2,0,0,1,.81-.43,3.4,3.4,0,0,1,.95-.13,3.83,3.83,0,0,1,1,.12,1.72,1.72,0,0,1,.77.4,1.62,1.62,0,0,1,.45.66,2.2,2.2,0,0,1,.13.78,2.89,2.89,0,0,1-.06.56h-3.08v.12a.77.77,0,0,0,.34.7,1.44,1.44,0,0,0,.82.22,3.23,3.23,0,0,0,.66-.07A7.21,7.21,0,0,0,168,62.22Zm-2.7-1.42h1.45v-.12a.82.82,0,0,0-.08-.4.51.51,0,0,0-.23-.23.77.77,0,0,0-.34-.08,1.17,1.17,0,0,0-.26,0,.71.71,0,0,0-.22.13.69.69,0,0,0-.16.18.67.67,0,0,0-.1.21A2.31,2.31,0,0,0,165.31,60.8Z" class="cls-2"/><path d="M174.82,60.05h2.6c0,.4-.07,1-.11,1.71s-.07,1.29-.08,1.66l-.83.14-.8.07-.83,0a7.49,7.49,0,0,1-1.17-.09,3.77,3.77,0,0,1-1-.32,2,2,0,0,1-.76-.58,2.61,2.61,0,0,1-.47-.87,3.39,3.39,0,0,1-.17-1,3.23,3.23,0,0,1,.45-1.66,3.16,3.16,0,0,1,1.27-1.21,4.68,4.68,0,0,1,2.16-.44,10.62,10.62,0,0,1,2.13.23c0,.43,0,.9,0,1.43-.21-.07-.38-.13-.51-.16a3.61,3.61,0,0,0-.46-.1,4.81,4.81,0,0,0-.49-.07,3.25,3.25,0,0,0-.42,0,3.1,3.1,0,0,0-.92.13,2.18,2.18,0,0,0-.74.43,1.82,1.82,0,0,0-.46.69,2.4,2.4,0,0,0-.15.84,1.92,1.92,0,0,0,.17.81,1.27,1.27,0,0,0,.56.54,2,2,0,0,0,.85.18,4,4,0,0,0,.86-.11l0-1h-.81l0-.54s0-.14,0-.25S174.82,60.24,174.82,60.05Z" class="cls-2"/><path d="M182.61,62.22c0,.18-.11.6-.22,1.28-.34.06-.63.11-.86.13s-.47,0-.7,0a5.69,5.69,0,0,1-1-.07,2.07,2.07,0,0,1-.76-.26,2,2,0,0,1-.54-.45,1.93,1.93,0,0,1-.32-.66,2.53,2.53,0,0,1-.12-.77,2.82,2.82,0,0,1,.23-1.1,2.13,2.13,0,0,1,.58-.84,1.87,1.87,0,0,1,.81-.43,3.35,3.35,0,0,1,.95-.13,3.69,3.69,0,0,1,1,.12,1.72,1.72,0,0,1,.77.4,1.62,1.62,0,0,1,.45.66,2.21,2.21,0,0,1,.14.78,2.89,2.89,0,0,1-.06.56h-3.08v.12a.78.78,0,0,0,.33.7,1.47,1.47,0,0,0,.83.22,3.37,3.37,0,0,0,.66-.07A7.65,7.65,0,0,0,182.61,62.22Zm-2.7-1.42h1.45v-.12a1,1,0,0,0-.08-.4.57.57,0,0,0-.23-.23.82.82,0,0,0-.35-.08,1.09,1.09,0,0,0-.25,0,.61.61,0,0,0-.22.13.73.73,0,0,0-.17.18,1,1,0,0,0-.09.21A2.31,2.31,0,0,0,179.91,60.8Z" class="cls-2"/><path d="M183.55,63.47c0-.13,0-.27,0-.41s0-.34,0-.59l0-.31a6.1,6.1,0,0,0,.73.24,2.09,2.09,0,0,0,.57.09,1.61,1.61,0,0,0,.35,0,.39.39,0,0,0,.19-.12.24.24,0,0,0,.06-.15.25.25,0,0,0,0-.14.82.82,0,0,0-.21-.19q-.36-.26-.63-.48A2.77,2.77,0,0,1,184,61a1.31,1.31,0,0,1-.21-.36,1.09,1.09,0,0,1-.07-.4,1.2,1.2,0,0,1,.82-1.14,3.26,3.26,0,0,1,1-.14,9.53,9.53,0,0,1,1.56.16l.07,1.23a2.83,2.83,0,0,0-1-.21,1.23,1.23,0,0,0-.5.07.23.23,0,0,0-.16.22.29.29,0,0,0,0,.09.24.24,0,0,0,.06.09.63.63,0,0,0,.12.1l.33.23.41.31a2.24,2.24,0,0,1,.38.36,1.09,1.09,0,0,1,.26.74,1.1,1.1,0,0,1-.15.57,1.19,1.19,0,0,1-.45.44,2.26,2.26,0,0,1-.67.25,4.32,4.32,0,0,1-.73.06,5.57,5.57,0,0,1-.64,0C184.19,63.59,183.89,63.54,183.55,63.47Z" class="cls-2"/><path d="M191.2,62.26c-.06.24-.1.48-.14.72l-.1.53a6.24,6.24,0,0,1-.67.13l-.48,0a3.23,3.23,0,0,1-.66-.06,1.08,1.08,0,0,1-.48-.23,1,1,0,0,1-.27-.39,1.78,1.78,0,0,1-.07-.47,1,1,0,0,1,0-.15c0-.08,0-.24,0-.5l.09-1.52h-.68c0-.21,0-.47,0-.8v-.41h.73c0-.14,0-.43.07-.88l.75-.16c.14,0,.43-.09.88-.2,0,.38,0,.8,0,1.24h1c0,.61,0,1,0,1.21h-1l0,1.1c0,.16,0,.27,0,.31a1.16,1.16,0,0,0,0,.35.36.36,0,0,0,.17.21.51.51,0,0,0,.25.06l.22,0Z" class="cls-2"/><path d="M191.73,63.55c0-.36.07-.65.1-.88s0-.53,0-.89,0-.76.05-1.2,0-.94,0-1.52h1.81c-.05.56-.09,1-.11,1.46s0,.86,0,1.33c0,.83,0,1.4,0,1.7h-1.88Zm.28-5c0-.35,0-.62,0-.83a2.2,2.2,0,0,0,0-.23h1.76c0,.09,0,.16,0,.23l0,.54a2.53,2.53,0,0,0,0,.29H192Z" class="cls-2"/><path d="M197.18,59a3.08,3.08,0,0,1,1,.17,2.27,2.27,0,0,1,.85.48,1.93,1.93,0,0,1,.51.73,2.44,2.44,0,0,1,.17.9,2.7,2.7,0,0,1-.15.9,2.11,2.11,0,0,1-.5.79,2.09,2.09,0,0,1-.89.56,3.69,3.69,0,0,1-1.15.18A3.47,3.47,0,0,1,196,63.5a2.37,2.37,0,0,1-.86-.47,2,2,0,0,1-.52-.75,2.38,2.38,0,0,1-.18-.91,2.59,2.59,0,0,1,.17-.92,2.28,2.28,0,0,1,.54-.78,2.4,2.4,0,0,1,.91-.53A3.25,3.25,0,0,1,197.18,59Zm0,1.29a.87.87,0,0,0-.5.15.78.78,0,0,0-.33.42,1.54,1.54,0,0,0-.11.61,1,1,0,0,0,.24.74.79.79,0,0,0,.6.26.87.87,0,0,0,.5-.15.83.83,0,0,0,.33-.44,1.54,1.54,0,0,0,.11-.61,1.31,1.31,0,0,0-.08-.5.82.82,0,0,0-.29-.35A.81.81,0,0,0,197.15,60.24Z" class="cls-2"/><path d="M200.36,63.55c.09-.67.15-1.4.2-2.2s.07-1.57.08-2.29h1.76l0,.6a3.24,3.24,0,0,1,.25-.26,2,2,0,0,1,.26-.18,1.66,1.66,0,0,1,.33-.15,2.23,2.23,0,0,1,.39-.09,3,3,0,0,1,.43,0,2.56,2.56,0,0,1,.62.07,1.54,1.54,0,0,1,.5.19,1.13,1.13,0,0,1,.34.31,1.1,1.1,0,0,1,.18.4,2.3,2.3,0,0,1,.05.45c0,.11,0,.35,0,.72l-.08,1.59c0,.31,0,.6,0,.87h-1.78c0-.27.05-.66.08-1.19s0-.9,0-1.11a1,1,0,0,0-.19-.69.66.66,0,0,0-.48-.2.86.86,0,0,0-.49.17,1.09,1.09,0,0,0-.35.49,3.87,3.87,0,0,0-.17,1c0,.49-.06,1-.07,1.49h-1.81Z" class="cls-2"/><path d="M113,71.88c.17-2.35.25-4.16.25-5.43v-.57h2c0,.66-.1,1.29-.13,1.88,0,.82-.07,1.58-.09,2.3s0,1.32,0,1.82h-2Z" class="cls-2"/><path d="M115.93,71.88c.08-.66.15-1.4.19-2.2s.07-1.57.08-2.28H118l0,.59a2.91,2.91,0,0,1,.25-.25,1.34,1.34,0,0,1,.26-.19,2.07,2.07,0,0,1,.34-.15l.38-.09a3.15,3.15,0,0,1,.44,0,2.62,2.62,0,0,1,.62.07,1.63,1.63,0,0,1,.5.19,1.45,1.45,0,0,1,.34.31,1.07,1.07,0,0,1,.18.41,2.12,2.12,0,0,1,0,.44q0,.17,0,.72L121.16,71c0,.32,0,.61,0,.87h-1.78c0-.26,0-.66.08-1.19s0-.89,0-1.11a1,1,0,0,0-.19-.69.65.65,0,0,0-.48-.19.79.79,0,0,0-.48.16,1.07,1.07,0,0,0-.35.49,3.88,3.88,0,0,0-.17,1.05c0,.48-.06,1-.07,1.48h-1.81Z" class="cls-2"/><path d="M122.28,71.88c.06-.56.12-1.64.2-3.22H122c0-.09,0-.29,0-.58s0-.51,0-.64h.63c0-.12,0-.22,0-.31a4.73,4.73,0,0,1,0-.63,1,1,0,0,1,.16-.39,1.09,1.09,0,0,1,.31-.29,1.19,1.19,0,0,1,.47-.16,3.07,3.07,0,0,1,.53,0l.55,0a5.07,5.07,0,0,1,.71.15c0,.46,0,.85.06,1.16a2.21,2.21,0,0,0-.78-.16.56.56,0,0,0-.37.11.49.49,0,0,0-.14.4v.14h1c0,.33,0,.74-.07,1.22h-.92l-.14,3.22h-1.78Z" class="cls-2"/><path d="M128.27,67.28a3.29,3.29,0,0,1,1,.17,2.27,2.27,0,0,1,.85.48,1.85,1.85,0,0,1,.52.73,2.45,2.45,0,0,1,.16.91,2.64,2.64,0,0,1-.15.89,2.1,2.1,0,0,1-.5.8,2.17,2.17,0,0,1-.89.55,3.6,3.6,0,0,1-1.15.19,3.47,3.47,0,0,1-1.07-.17,2.17,2.17,0,0,1-.86-.47,2.07,2.07,0,0,1-.52-.75,2.53,2.53,0,0,1-.17-.91,2.39,2.39,0,0,1,.17-.92,2.12,2.12,0,0,1,.53-.78,2.48,2.48,0,0,1,.91-.53A3.31,3.31,0,0,1,128.27,67.28Zm0,1.29a.9.9,0,0,0-.51.15.94.94,0,0,0-.33.42,1.74,1.74,0,0,0-.11.61,1,1,0,0,0,.24.74.82.82,0,0,0,.61.26.84.84,0,0,0,.49-.15.92.92,0,0,0,.34-.43,1.84,1.84,0,0,0,.11-.62,1.26,1.26,0,0,0-.09-.49.73.73,0,0,0-.29-.36A.88.88,0,0,0,128.24,68.57Z" class="cls-2"/><path d="M131.49,71.88l.13-1.95,0-1.12v-.62c0-.21,0-.48,0-.79h1.69l0,.49a2.66,2.66,0,0,1,.28-.29,1.56,1.56,0,0,1,.25-.17,1,1,0,0,1,.29-.11,1.17,1.17,0,0,1,.32,0,1.63,1.63,0,0,1,.36,0c0,.31,0,.58,0,.79l0,.67a1.9,1.9,0,0,0-.45-.07,1.26,1.26,0,0,0-.46.08,1,1,0,0,0-.34.23,1.49,1.49,0,0,0-.23.39,2.68,2.68,0,0,0-.12.74c0,.34,0,.72,0,1.15,0,.16,0,.35,0,.57h-1.77Z" class="cls-2"/><path d="M135.37,71.88l.12-2.12.07-1.65V67.4h1.67l0,.58a2.56,2.56,0,0,1,.23-.27,1.54,1.54,0,0,1,.23-.18,1.47,1.47,0,0,1,.28-.14l.33-.08a2.22,2.22,0,0,1,.37,0,1.87,1.87,0,0,1,.42,0,2.07,2.07,0,0,1,.32.09l.24.13a1,1,0,0,1,.18.17A2,2,0,0,1,140,68a1.7,1.7,0,0,1,.41-.43,1.65,1.65,0,0,1,.49-.21,2.17,2.17,0,0,1,.57-.07,2.46,2.46,0,0,1,.72.11,1.12,1.12,0,0,1,.55.38,1.07,1.07,0,0,1,.22.7c0,.14,0,.34,0,.61s0,.74-.08,1.41-.05,1.13-.05,1.39H141c0-.37.06-.84.09-1.4s0-1,0-1.16a1,1,0,0,0-.07-.43.36.36,0,0,0-.17-.19.42.42,0,0,0-.22,0,.41.41,0,0,0-.23,0,.48.48,0,0,0-.19.16,1.15,1.15,0,0,0-.17.37,2.38,2.38,0,0,0-.08.53c0,.24,0,.55,0,.94l0,1.18H138.2c0-.26.05-.7.09-1.31s.05-1,.05-1.24a1,1,0,0,0-.05-.39.41.41,0,0,0-.15-.21.33.33,0,0,0-.25-.08.47.47,0,0,0-.3.1.85.85,0,0,0-.22.29,1.53,1.53,0,0,0-.12.52c0,.22-.05.56-.07,1s0,.89,0,1.31h-1.77Z" class="cls-2"/><path d="M144.16,68.67c.05-.29.09-.49.1-.6s0-.28.07-.51a10.15,10.15,0,0,1,2.18-.28,3.53,3.53,0,0,1,1,.12,1.4,1.4,0,0,1,.67.37,1.07,1.07,0,0,1,.24.75c0,.16,0,.53-.06,1.1s-.08,1.33-.1,2.26h-1.74c0-.32.08-1,.13-2l-.26.11-.33.11a2.3,2.3,0,0,0-.37.12.71.71,0,0,0-.23.12.48.48,0,0,0-.14.15.37.37,0,0,0,.07.43.57.57,0,0,0,.38.11l.2,0a1.67,1.67,0,0,0,.29-.07c-.08.22-.19.55-.3,1a3.65,3.65,0,0,1-.72.07,2.25,2.25,0,0,1-.91-.16,1.09,1.09,0,0,1-.55-.49,1.33,1.33,0,0,1-.2-.67,1.18,1.18,0,0,1,.07-.41,1.38,1.38,0,0,1,.23-.38,1.42,1.42,0,0,1,.36-.33,2.49,2.49,0,0,1,.56-.25,7.19,7.19,0,0,1,.91-.22l.42-.1a1,1,0,0,0,.27-.09.32.32,0,0,0,.13-.08.38.38,0,0,0,.08-.11.43.43,0,0,0,0-.11.29.29,0,0,0-.14-.26.78.78,0,0,0-.41-.09A5.47,5.47,0,0,0,144.16,68.67Z" class="cls-2"/><path d="M152.46,70.59c-.05.25-.1.49-.13.72l-.1.54-.68.12-.47,0a3.18,3.18,0,0,1-.66-.07,1.06,1.06,0,0,1-.49-.23.84.84,0,0,1-.26-.39,1.45,1.45,0,0,1-.07-.47v-.15c0-.08,0-.24,0-.5l.1-1.52H149c0-.2,0-.47,0-.8l0-.41h.73c0-.13,0-.43.06-.88l.75-.16c.14,0,.43-.09.88-.2,0,.39,0,.8,0,1.24h1c0,.61,0,1,0,1.21h-1l-.05,1.1c0,.16,0,.27,0,.31a1.2,1.2,0,0,0,0,.36.32.32,0,0,0,.16.2.55.55,0,0,0,.26.06l.22,0Z" class="cls-2"/><path d="M153,71.88c0-.36.07-.65.09-.88s0-.53.06-.89,0-.76,0-1.19,0-1,0-1.52h1.82c-.05.55-.09,1-.11,1.45s0,.87,0,1.34c0,.83,0,1.39,0,1.69H153Zm.28-5c0-.35,0-.62,0-.82v-.24h1.76c0,.09,0,.17,0,.23l0,.54a2.62,2.62,0,0,0,0,.29h-1.73Z" class="cls-2"/><path d="M158.89,73.94l.1-1.4c0-.21,0-.6.07-1.18l-.32.28a1.59,1.59,0,0,1-.32.18A1.63,1.63,0,0,1,158,72a2,2,0,0,1-.43,0,1.76,1.76,0,0,1-1-.3,1.83,1.83,0,0,1-.64-.77,2.41,2.41,0,0,1-.22-1,2.87,2.87,0,0,1,.12-.83,2.92,2.92,0,0,1,.35-.76,2,2,0,0,1,.64-.59,3,3,0,0,1,1-.34,6.79,6.79,0,0,1,1.13-.1,13.37,13.37,0,0,1,2.1.2c-.06.73-.12,1.41-.16,2s-.07,1.24-.09,1.86,0,1.48-.06,2.57h-1.8Zm.25-5.32a2.69,2.69,0,0,0-.44-.05,1.48,1.48,0,0,0-.7.16,1.06,1.06,0,0,0-.43.48,1.77,1.77,0,0,0-.14.69,1.18,1.18,0,0,0,.07.43.68.68,0,0,0,.25.3.66.66,0,0,0,.38.12.74.74,0,0,0,.32-.07,1,1,0,0,0,.28-.2,1.23,1.23,0,0,0,.21-.34,2,2,0,0,0,.13-.53C159.1,69.39,159.12,69.06,159.14,68.62Z" class="cls-2"/><path d="M166.67,71.88H165v-.6a3.12,3.12,0,0,1-.26.3l-.24.17-.29.13a2.87,2.87,0,0,1-.37.09,3,3,0,0,1-.43,0,2.27,2.27,0,0,1-.65-.09,1.35,1.35,0,0,1-.55-.27,1.11,1.11,0,0,1-.32-.44,1.64,1.64,0,0,1-.08-.57s0-.14,0-.25l.07-1c0-.37,0-.78.06-1.22,0-.27,0-.53,0-.77h1.78l-.13,1.67c0,.25,0,.43,0,.52v.19a.79.79,0,0,0,.19.62.64.64,0,0,0,.45.16.76.76,0,0,0,.21,0,.72.72,0,0,0,.2-.09.37.37,0,0,0,.15-.13.78.78,0,0,0,.14-.2,1.6,1.6,0,0,0,.1-.31,5.67,5.67,0,0,0,.08-.59c0-.17,0-.47,0-.9l0-.91h1.75c-.07.74-.12,1.45-.16,2.12S166.69,71,166.67,71.88Z" class="cls-2"/><path d="M172,70.55c0,.18-.11.61-.22,1.28a7.57,7.57,0,0,1-.86.13,5.48,5.48,0,0,1-.7,0,5.64,5.64,0,0,1-1-.08,2.06,2.06,0,0,1-.76-.25,2,2,0,0,1-.54-.46,1.88,1.88,0,0,1-.32-.65,2.59,2.59,0,0,1-.12-.78,2.82,2.82,0,0,1,.23-1.1,2.13,2.13,0,0,1,.58-.84,2,2,0,0,1,.81-.43,3.35,3.35,0,0,1,.95-.13,3.69,3.69,0,0,1,1,.12,1.83,1.83,0,0,1,.77.4,1.77,1.77,0,0,1,.45.66,2.22,2.22,0,0,1,.14.79,2.88,2.88,0,0,1-.06.55h-3.08v.12a.78.78,0,0,0,.33.7,1.47,1.47,0,0,0,.83.22,4.24,4.24,0,0,0,.66-.06C171.34,70.74,171.64,70.66,172,70.55Zm-2.71-1.41h1.45a.66.66,0,0,0,0-.13.93.93,0,0,0-.08-.39.51.51,0,0,0-.24-.24.74.74,0,0,0-.34-.07.73.73,0,0,0-.25,0,.59.59,0,0,0-.22.12.77.77,0,0,0-.17.19,1.13,1.13,0,0,0-.09.2C169.35,68.93,169.33,69,169.3,69.14Z" class="cls-2"/><circle r="6.2" cy="8.6" cx="201.27" class="cls-2"/></svg>